<?xml version="1.0" encoding="UTF-8"?>
<svg xmlns="http://www.w3.org/2000/svg" width="133" height="49" viewBox="0 0 133 49" fill="none">
  <path d="M27.2136 26.1684C26.0575 25.346 24.7396 24.7825 23.3487 24.5159L19.4521 23.5739C18.4374 23.3769 17.4492 23.0607 16.5078 22.6319C16.1725 22.4657 15.8921 22.2054 15.7006 21.8825C15.509 21.5595 15.4146 21.1876 15.4285 20.8118C15.4189 20.4024 15.5138 19.9974 15.7042 19.6354C15.8945 19.2734 16.1739 18.9666 16.5158 18.7442C17.3936 18.2086 18.4109 17.95 19.4362 18.0018C20.3831 17.9715 21.3237 18.1656 22.1821 18.5686C22.7172 18.8436 23.1664 19.262 23.4801 19.7776C23.7938 20.2932 23.9598 20.8859 23.9598 21.4904H28.5071C28.5251 20.4253 28.2947 19.3708 27.8343 18.4114C27.374 17.4521 26.6966 16.6146 25.8565 15.9661C24.0904 14.6637 21.9425 13.9922 19.7537 14.0581C16.9046 14.0581 14.7381 14.7287 13.2699 16.0779C12.5553 16.7107 11.9869 17.493 11.6044 18.37C11.2219 19.2471 11.0347 20.1976 11.0558 21.1551C11.0558 23.3903 11.8176 25.0322 13.3414 26.0806C14.8664 26.9422 16.5286 27.5311 18.2538 27.8209L20.6346 28.3558C21.7119 28.5517 22.753 28.9125 23.7217 29.4255C24.0183 29.5987 24.2636 29.8483 24.4324 30.1485C24.6012 30.4488 24.6874 30.789 24.682 31.1339C24.7005 31.7348 24.5148 32.324 24.1556 32.8044C23.7963 33.2848 23.2849 33.6277 22.7059 33.7763C21.8275 34.0484 20.9104 34.1725 19.9918 34.1435C18.1268 34.1435 16.8174 33.6805 16.0237 32.7385C15.5347 32.0539 15.241 31.2478 15.1746 30.4074H10.6907C10.6417 31.4741 10.8457 32.5372 11.2859 33.5089C11.7261 34.4806 12.3899 35.333 13.2223 35.9956C14.9101 37.3527 17.2274 38.0313 20.1743 38.0313C23.0551 38.0313 25.293 37.3447 26.8723 35.9636C27.6312 35.3378 28.2396 34.5473 28.6519 33.6515C29.0642 32.7557 29.2697 31.7777 29.2531 30.7906C29.2983 29.9131 29.1372 29.0373 28.7829 28.2342C28.4285 27.4311 27.8908 26.7233 27.2136 26.1684Z" fill="#393D40"></path>
  <path d="M36.6486 14.7129H31.8711V37.5684H36.6486V14.7129Z" fill="#393D40"></path>
  <path d="M58.0923 18.0902C57.1572 16.7319 55.8051 15.7195 54.2433 15.2083C53.1075 14.87 51.928 14.7032 50.7435 14.7133H40.998V37.465H50.7435C52.2758 37.5449 53.7995 37.1888 55.14 36.4377C56.4804 35.6865 57.5834 34.5707 58.3224 33.2181C59.5912 30.8675 60.2157 28.2197 60.1318 25.5463C60.1238 24.2785 59.9801 23.0152 59.7033 21.7783C59.4157 20.4533 58.868 19.1994 58.0923 18.0902ZM55.3543 26.153C55.3067 29.1786 54.4417 31.837 52.3545 32.9626C51.4671 33.3998 50.4847 33.6057 49.4975 33.5613H45.7676V18.7288C45.7676 18.7288 49.8309 18.7288 50.0213 18.7288C51.0639 18.6713 52.1041 18.88 53.0449 19.3355C55.0528 20.517 55.3385 23.2153 55.3543 26.1451C55.3623 26.0493 55.3623 26.2409 55.3543 26.153Z" fill="#393D40"></path>
  <path d="M63.4648 14.7129V18.7284V24.1329V28.1484V33.5529V37.5684H68.2423H79.0592V33.5529H68.2423V28.1484H79.0592V24.1329H68.2423V18.7284H79.0592V14.7129H68.2423H63.4648Z" fill="#393D40"></path>
  <path d="M122.31 21.4266C122.299 19.6438 121.588 17.9374 120.332 16.6797C119.076 15.422 117.376 14.715 115.604 14.7129H105.549V37.5684H110.31V29.1862H115.604C117.376 29.1841 119.076 28.4771 120.332 27.2194C121.588 25.9617 122.299 24.2553 122.31 22.4724V21.4266ZM117.993 22.4964C117.993 23.2056 117.712 23.8859 117.214 24.3874C116.715 24.8889 116.039 25.1707 115.334 25.1707H110.31V18.7284H115.334C116.039 18.7284 116.715 19.0101 117.214 19.5117C117.712 20.0132 117.993 20.6934 117.993 21.4027V22.4964Z" fill="#393D40"></path>
  <path d="M95.9866 10.9443H100.748V14.6884C100.748 14.97 100.637 15.24 100.439 15.4392C100.241 15.6383 99.9726 15.7501 99.6927 15.7501H95.9707V10.9603L95.9866 10.9443Z" fill="#DC4097"></path>
  <path d="M82.6055 29.9685C82.6055 30.9672 82.8012 31.9561 83.1813 32.8787C83.5615 33.8013 84.1187 34.6394 84.8211 35.3453C85.5235 36.0511 86.3573 36.6107 87.2749 36.9922C88.1924 37.3736 89.1757 37.5694 90.1685 37.5684H100.787V19.391H96.0253V33.529H91.6684C91.2344 33.5321 90.8011 33.492 90.3748 33.4092C89.8321 33.2655 89.3258 33.0077 88.8894 32.6526C88.453 32.2976 88.0964 31.8535 87.8433 31.3496C87.5214 30.3394 87.379 29.2801 87.4226 28.2202V14.7129H82.661L82.6055 29.9685Z" fill="#393D40"></path>
</svg>
